<?xml version="1.0" encoding="utf-8"?>
<svg version="1.1" id="Layer_1" xmlns="http://www.w3.org/2000/svg" x="0px" y="0px" width="100%" viewBox="61.033 -11.097 4583 4583" enable-background="new 0 0 4583 4583">
  <path opacity="1.000000" stroke="none" d="M 293.44 3988.74 C 292.923 3963.76 291.98 3938.79 291.96 3913.81 C 291.816 3726.93 292.161 3540.02 291.519 3353.14 C 291.418 3323.72 296.033 3295.75 305.153 3267.92 C 332.25 3185.27 377.145 3112.33 432.202 3044.8 C 543.921 2907.77 681.252 2800.52 837.159 2714.79 C 989.759 2630.85 1151.71 2568.92 1319.42 2520.53 C 1462.13 2479.34 1606.96 2446.94 1754.03 2424.67 C 1858.17 2408.91 1962.41 2393.16 2067.05 2381.02 C 2179.97 2367.92 2293.67 2366.18 2407.4 2368.46 C 2545.59 2371.23 2682.36 2387.18 2818.86 2407.2 C 2940.55 2425.06 3061.6 2445.83 3181.4 2473.28 C 3376.65 2518.02 3566.81 2577.36 3747.63 2662.92 C 3882.09 2726.54 4007.49 2803.61 4118.87 2901.33 C 4196.79 2969.69 4262.95 3047.5 4316.59 3135.23 C 4347.84 3186.37 4372.14 3240.51 4386.37 3298.57 C 4389.16 3309.98 4391.69 3321.81 4391.71 3333.44 C 4391.83 3546.65 4391.56 3759.86 4389.81 3978.95 C 4384.19 3998.73 4380.49 4012.75 4376.03 4026.53 C 4331.55 4163.78 4244.58 4266.73 4112.55 4332.36 C 4018.31 4379.22 3918.22 4402.52 3811.95 4402.5 C 2831.36 4402.2 1850.77 4402.18 870.179 4402.56 C 787.859 4402.6 708.688 4388.23 632.454 4359.49 C 465.425 4296.52 354.063 4182.52 302.979 4014.39 C 300.336 4005.67 296.643 3997.27 293.44 3988.74 Z" style="fill: rgb(25, 113, 239);"/>
  <path opacity="1.000000" stroke="none" d="M 1447.82 1006.67 C 1446.73 983.756 1446.2 960.784 1444.48 937.912 C 1435.93 824.592 1450.05 713.891 1482.62 605.747 C 1583.71 270.05 1854.82 40.286 2154.85 -25.407 C 2645.73 -132.88 3121.09 193.197 3225.22 682.273 C 3245.63 778.201 3250.94 874.84 3242.51 978.033 C 3234.36 1035.69 3225.45 1087.49 3211.12 1138.19 C 3081.35 1597.86 2626.29 1890.03 2156.98 1788.58 C 1807.29 1713.04 1532.49 1430.19 1461.07 1069.64 C 1456.88 1048.59 1452.24 1027.65 1447.82 1006.67 Z" style="fill: rgb(25, 113, 239); transform-box: fill-box; transform-origin: 50% 50%;" transform="matrix(0, -1, 1, 0, 0.000265, 0.000145)"/>
  <path fill="#115BC4" opacity="1.000000" stroke="none" d="M 293.557 3992.48 C 296.643 3997.27 300.336 4005.67 302.979 4014.39 C 354.063 4182.52 465.425 4296.52 632.454 4359.49 C 708.688 4388.23 787.859 4402.6 870.179 4402.56 C 1850.77 4402.18 2831.36 4402.2 3811.95 4402.5 C 3918.22 4402.52 4018.31 4379.22 4112.55 4332.36 C 4244.58 4266.73 4331.55 4163.78 4376.03 4026.53 C 4380.49 4012.75 4384.19 3998.73 4390.12 3982.57 C 4392.17 4015.85 4390.68 4051.48 4392.94 4086.89 C 4396.13 4136.74 4385.1 4184.02 4365.6 4228.81 C 4338.16 4291.89 4303.08 4350.22 4252.16 4399.82 C 4188.68 4461.65 4115.52 4506.83 4031.02 4533.72 C 3968.32 4553.65 3904.25 4566.62 3836.95 4566.57 C 2839.94 4565.81 1842.92 4566.03 845.909 4566.06 C 708.602 4566.06 587.101 4522.05 478.312 4442.07 C 380.185 4369.93 324.642 4271.92 295.646 4157.83 C 293.413 4149.04 293.251 4139.6 293.239 4130.47 C 293.177 4085.72 293.493 4040.98 293.557 3992.48 Z" style=""/>
  <path fill="#0F5BC4" opacity="1.000000" stroke="none" d="M 1420.29 1005.58 C 1427.34 1023.68 1432.11 1044.05 1436.4 1064.52 C 1509.83 1415.3 1792.3 1690.44 2151.74 1763.95 C 2634.17 1862.63 3101.92 1578.4 3235.32 1131.22 C 3250.04 1081.89 3259.19 1031.5 3269.41 978.443 C 3272.03 1001.05 3272.13 1026.04 3272.32 1051.02 C 3273.04 1144.85 3254.82 1235.4 3226.34 1324.82 C 3201.31 1403.39 3163.27 1475.51 3118.32 1544.31 C 3073.21 1613.37 3017.44 1674.66 2953.71 1727.45 C 2857.55 1807.11 2750.39 1869.59 2628.6 1906.51 C 2574.51 1922.91 2519.56 1936.48 2463.69 1942.34 C 2414.39 1947.5 2364.69 1957.68 2314.78 1951.36 C 2274.88 1946.32 2234.76 1943.62 2194.9 1937.47 C 2142.81 1929.4 2091.9 1917.38 2042.2 1901.44 C 1968.93 1877.95 1900.88 1843.74 1835.81 1802.8 C 1764.9 1758.17 1702.02 1704.9 1646.33 1644.05 C 1609.72 1604.06 1578.95 1559.13 1549.2 1513.73 C 1513.39 1459.04 1488.61 1399.5 1465.21 1339.45 C 1453.35 1308.99 1446.24 1276.66 1438.72 1244.79 C 1432.1 1216.82 1427.53 1188.38 1422.88 1160.02 C 1421.19 1149.72 1422.28 1139.01 1421.41 1128.55 C 1420.32 1115.55 1418.91 1102.55 1416.97 1089.64 C 1412.85 1062.32 1410.46 1035.07 1420.29 1005.58 Z" style=""/>
</svg>