<?xml version="1.0" encoding="utf-8"?>
<svg version="1.1" id="Layer_1" xmlns="http://www.w3.org/2000/svg" x="0px" y="0px" width="100%" viewBox="0 0 4583 4583" enable-background="new 0 0 4583 4583">
  <path opacity="1.000000" stroke="none" d=" M1211.999756,4484.956055 C1132.668335,4484.956055 1055.337036,4484.901367 978.005615,4484.969238 C883.953918,4485.052246 792.306091,4470.417480 703.155518,4440.359863 C582.589294,4399.708984 476.239380,4335.404297 383.689758,4248.192383 C308.716278,4177.541992 248.280487,4096.004883 202.379944,4003.850586 C163.214584,3925.218750 136.403854,3842.548096 123.059380,3755.557129 C116.279381,3711.358643 112.264313,3667.039551 112.268257,3622.292480 C112.346268,2736.314941 112.135948,1850.337158 112.537674,964.359741 C112.595963,835.814331 142.474960,713.668335 198.708084,597.972473 C236.279221,520.672363 284.031036,450.355103 342.606689,387.518433 C465.638458,255.537003 615.209045,169.283554 791.129028,129.170334 C834.671997,119.241661 878.866516,112.811844 923.582092,110.990059 C948.190369,109.987480 972.824097,109.038597 997.446472,109.035812 C1873.424316,108.936882 2749.402344,108.903549 3625.380127,109.030914 C3711.185791,109.043388 3795.187988,121.841721 3877.227295,147.309143 C4000.751221,185.654678 4110.396973,248.301025 4205.588867,335.762299 C4337.372070,456.843445 4424.410645,604.472961 4465.771973,778.746887 C4475.318848,818.972778 4482.308105,859.684814 4484.751465,901.008606 C4486.440918,929.579102 4488.147949,958.207275 4488.153320,986.809998 C4488.331055,1862.121338 4488.223145,2737.432617 4488.389160,3612.743896 C4488.411133,3728.074219 4467.794434,3839.184814 4424.197754,3946.011963 C4389.664551,4030.631104 4342.883789,4107.918945 4283.676270,4177.401367 C4172.335938,4308.062500 4034.659668,4399.074219 3870.140625,4448.902344 C3816.447998,4465.164062 3761.648438,4475.674316 3705.739014,4481.065918 C3675.812256,4483.952148 3645.895264,4484.873047 3615.932617,4484.876465 C2815.288330,4484.975586 2014.644165,4484.955566 1211.999756,4484.956055 M1834.123413,1709.821777 C1830.517090,1723.592407 1831.694702,1737.391724 1833.719849,1751.231567 C1834.676392,1757.768677 1835.377441,1764.353394 1835.909668,1770.939453 C1836.338013,1776.240112 1835.800293,1781.661377 1836.632324,1786.879028 C1838.922974,1801.244629 1841.181030,1815.652466 1844.435791,1829.817505 C1848.145142,1845.960205 1851.651001,1862.338745 1857.496704,1877.761353 C1869.025269,1908.177246 1881.230957,1938.341797 1898.884521,1966.040649 C1913.542358,1989.039307 1928.704468,2011.793945 1946.741943,2032.052734 C1974.184204,2062.874023 2005.170166,2089.857666 2040.116455,2112.462158 C2072.173096,2133.197754 2105.709229,2150.523438 2141.811035,2162.425781 C2166.300781,2170.499512 2191.389648,2176.590820 2217.057129,2180.670654 C2236.702393,2183.793213 2256.470215,2185.155762 2276.130615,2187.712891 C2300.725098,2190.911621 2325.215088,2185.759521 2349.503906,2183.141602 C2377.039307,2180.173828 2404.116455,2173.298584 2430.769043,2164.993164 C2490.788574,2146.290527 2543.588623,2114.647217 2590.977051,2074.295410 C2622.379150,2047.556274 2649.863281,2016.506470 2672.093262,1981.527466 C2694.238525,1946.682007 2712.983398,1910.154907 2725.315918,1870.354126 C2739.349121,1825.063599 2748.326904,1779.193604 2747.973633,1731.670166 C2747.879639,1719.015259 2747.828369,1706.360229 2745.950928,1690.624390 C2749.911865,1642.515625 2747.220459,1594.903442 2736.875244,1547.627930 C2684.138672,1306.632690 2443.362061,1145.948242 2194.719238,1198.911377 C2042.753418,1231.281494 1905.422241,1344.501831 1854.218872,1509.920410 C1837.725098,1563.205566 1830.569336,1617.755127 1834.899048,1673.599854 C1835.772949,1684.869385 1836.042480,1696.185791 1834.123413,1709.821777 M3299.410645,3211.754395 C3299.501953,3103.756836 3299.635498,2995.759521 3299.570312,2887.761963 C3299.566650,2881.869385 3298.315918,2875.878662 3296.939209,2870.102051 C3289.928711,2840.692627 3277.955322,2813.270508 3262.551514,2787.367676 C3236.125488,2742.928955 3203.524414,2703.515869 3165.125732,2668.886963 C3110.244629,2619.393066 3048.450195,2580.358154 2982.192627,2548.129883 C2893.092285,2504.790771 2799.389648,2474.733887 2703.168701,2452.071533 C2644.141846,2438.169434 2584.490723,2427.648193 2524.527344,2418.606689 C2457.263672,2408.464844 2389.866455,2400.382324 2321.771484,2398.980713 C2265.730469,2397.827148 2209.704834,2398.704834 2154.055908,2405.340576 C2102.493652,2411.489502 2051.133301,2419.468262 1999.810547,2427.454590 C1927.338745,2438.731934 1855.977051,2455.145996 1785.654663,2476.002930 C1703.012695,2500.514160 1623.209717,2531.888916 1548.009033,2574.401367 C1471.185913,2617.831055 1403.513428,2672.153320 1348.462524,2741.558838 C1321.332275,2775.763428 1299.208740,2812.711914 1285.856689,2854.580322 C1281.362305,2868.673584 1279.088745,2882.838135 1279.138428,2897.739014 C1279.454590,2992.403809 1279.284790,3087.070312 1279.355957,3181.736084 C1279.365479,3194.386230 1279.830688,3207.035645 1280.200684,3223.481934 C1280.110840,3246.145996 1279.955322,3268.810303 1279.985596,3291.474365 C1279.991821,3296.102783 1280.071899,3300.884521 1281.172119,3305.334717 C1295.459961,3363.121094 1322.830566,3412.767578 1371.183105,3449.308105 C1424.790771,3489.820068 1484.663086,3512.114990 1552.320801,3512.112793 C2043.615601,3512.097412 2534.910400,3511.983643 3026.205078,3512.372070 C3059.364502,3512.398193 3090.940674,3505.829346 3121.830811,3495.730225 C3163.478027,3482.113770 3199.529053,3459.224121 3230.804199,3427.907959 C3255.892578,3402.787598 3273.183350,3373.236084 3286.710938,3341.290039 C3296.318115,3318.602295 3301.752197,3294.656250 3300.179688,3269.402100 C3299.062744,3251.468506 3299.802246,3233.419678 3299.410645,3211.754395 z" style="fill: rgb(97, 95, 255);"/>
  <path fill="#FFFFFF" opacity="1.000000" stroke="none" d=" M1280.084961,3219.685547 C1279.830688,3207.035645 1279.365479,3194.386230 1279.355957,3181.736084 C1279.284790,3087.070312 1279.454590,2992.403809 1279.138428,2897.739014 C1279.088745,2882.838135 1281.362305,2868.673584 1285.856689,2854.580322 C1299.208740,2812.711914 1321.332275,2775.763428 1348.462524,2741.558838 C1403.513428,2672.153320 1471.185913,2617.831055 1548.009033,2574.401367 C1623.209717,2531.888916 1703.012695,2500.514160 1785.654663,2476.002930 C1855.977051,2455.145996 1927.338745,2438.731934 1999.810547,2427.454590 C2051.133301,2419.468262 2102.493652,2411.489502 2154.055908,2405.340576 C2209.704834,2398.704834 2265.730469,2397.827148 2321.771484,2398.980713 C2389.866455,2400.382324 2457.263672,2408.464844 2524.527344,2418.606689 C2584.490723,2427.648193 2644.141846,2438.169434 2703.168701,2452.071533 C2799.389648,2474.733887 2893.092285,2504.790771 2982.192627,2548.129883 C3048.450195,2580.358154 3110.244629,2619.393066 3165.125732,2668.886963 C3203.524414,2703.515869 3236.125488,2742.928955 3262.551514,2787.367676 C3277.955322,2813.270508 3289.928711,2840.692627 3296.939209,2870.102051 C3298.315918,2875.878662 3299.566650,2881.869385 3299.570312,2887.761963 C3299.635498,2995.759521 3299.501953,3103.756836 3298.637695,3214.729492 C3295.868164,3224.747314 3294.047607,3231.845459 3291.847412,3238.824463 C3269.927979,3308.349365 3227.069580,3360.490479 3162.014160,3393.739014 C3115.577637,3417.471436 3066.248779,3429.278809 3013.882812,3429.262207 C2530.682373,3429.109131 2047.482056,3429.102295 1564.281616,3429.297119 C1523.716919,3429.313232 1484.705444,3422.034912 1447.140015,3407.479248 C1364.833008,3375.586426 1309.957520,3317.842285 1284.785522,3232.674805 C1283.482666,3228.267090 1281.663696,3224.011719 1280.084961,3219.685547 z"/>
  <path fill="#FEFFFF" opacity="1.000000" stroke="none" d=" M1836.590698,1707.480591 C1836.042480,1696.185791 1835.772949,1684.869385 1834.899048,1673.599854 C1830.569336,1617.755127 1837.725098,1563.205566 1854.218872,1509.920410 C1905.422241,1344.501831 2042.753418,1231.281494 2194.719238,1198.911377 C2443.362061,1145.948242 2684.138672,1306.632690 2736.875244,1547.627930 C2747.220459,1594.903442 2749.911865,1642.515625 2745.637207,1693.366455 C2741.504639,1721.783325 2736.996826,1747.305054 2729.745361,1772.290894 C2664.008301,1998.798096 2433.513184,2142.765869 2195.794678,2092.785400 C2018.670898,2055.545166 1879.480347,1916.184326 1843.294800,1738.505371 C1841.183472,1728.138672 1838.830933,1717.821045 1836.590698,1707.480591 z"/>
  <path opacity="1.000000" stroke="none" d=" M1280.142822,3221.583740 C1281.663696,3224.011719 1283.482666,3228.267090 1284.785522,3232.674805 C1309.957520,3317.842285 1364.833008,3375.586426 1447.140015,3407.479248 C1484.705444,3422.034912 1523.716919,3429.313232 1564.281616,3429.297119 C2047.482056,3429.102295 2530.682373,3429.109131 3013.882812,3429.262207 C3066.248779,3429.278809 3115.577637,3417.471436 3162.014160,3393.739014 C3227.069580,3360.490479 3269.927979,3308.349365 3291.847412,3238.824463 C3294.047607,3231.845459 3295.868164,3224.747314 3298.789062,3216.563232 C3299.802246,3233.419678 3299.062744,3251.468506 3300.179688,3269.402100 C3301.752197,3294.656250 3296.318115,3318.602295 3286.710938,3341.290039 C3273.183350,3373.236084 3255.892578,3402.787598 3230.804199,3427.907959 C3199.529053,3459.224121 3163.478027,3482.113770 3121.830811,3495.730225 C3090.940674,3505.829346 3059.364502,3512.398193 3026.205078,3512.372070 C2534.910400,3511.983643 2043.615601,3512.097412 1552.320801,3512.112793 C1484.663086,3512.114990 1424.790771,3489.820068 1371.183105,3449.308105 C1322.830566,3412.767578 1295.459961,3363.121094 1281.172119,3305.334717 C1280.071899,3300.884521 1279.991821,3296.102783 1279.985596,3291.474365 C1279.955322,3268.810303 1280.110840,3246.145996 1280.142822,3221.583740 z" style="fill: rgb(54, 15, 196);"/>
  <path opacity="1.000000" stroke="none" d=" M1835.357056,1708.651123 C1838.830933,1717.821045 1841.183472,1728.138672 1843.294800,1738.505371 C1879.480347,1916.184326 2018.670898,2055.545166 2195.794678,2092.785400 C2433.513184,2142.765869 2664.008301,1998.798096 2729.745361,1772.290894 C2736.996826,1747.305054 2741.504639,1721.783325 2746.540283,1694.906860 C2747.828369,1706.360229 2747.879639,1719.015259 2747.973633,1731.670166 C2748.326904,1779.193604 2739.349121,1825.063599 2725.315918,1870.354126 C2712.983398,1910.154907 2694.238525,1946.682007 2672.093262,1981.527466 C2649.863281,2016.506470 2622.379150,2047.556274 2590.977051,2074.295410 C2543.588623,2114.647217 2490.788574,2146.290527 2430.769043,2164.993164 C2404.116455,2173.298584 2377.039307,2180.173828 2349.503906,2183.141602 C2325.215088,2185.759521 2300.725098,2190.911621 2276.130615,2187.712891 C2256.470215,2185.155762 2236.702393,2183.793213 2217.057129,2180.670654 C2191.389648,2176.590820 2166.300781,2170.499512 2141.811035,2162.425781 C2105.709229,2150.523438 2072.173096,2133.197754 2040.116455,2112.462158 C2005.170166,2089.857666 1974.184204,2062.874023 1946.741943,2032.052734 C1928.704468,2011.793945 1913.542358,1989.039307 1898.884521,1966.040649 C1881.230957,1938.341797 1869.025269,1908.177246 1857.496704,1877.761353 C1851.651001,1862.338745 1848.145142,1845.960205 1844.435791,1829.817505 C1841.181030,1815.652466 1838.922974,1801.244629 1836.632324,1786.879028 C1835.800293,1781.661377 1836.338013,1776.240112 1835.909668,1770.939453 C1835.377441,1764.353394 1834.676392,1757.768677 1833.719849,1751.231567 C1831.694702,1737.391724 1830.517090,1723.592407 1835.357056,1708.651123 z" style="fill: rgb(54, 15, 196);"/>
</svg>